<mxfile host="app.diagrams.net" modified="2021-04-05T09:56:07.092Z" agent="5.0 (Windows NT 10.0; Win64; x64) AppleWebKit/537.36 (KHTML, like Gecko) Chrome/89.0.4389.114 Safari/537.36" etag="f1ZFDebwlNd6UxBFKyi_" version="14.5.4" type="github">
  <diagram id="sPsBD7b9lyfZdMVB0wE2" name="Page-1">
    <mxGraphModel dx="865" dy="483" grid="1" gridSize="10" guides="1" tooltips="1" connect="1" arrows="1" fold="1" page="1" pageScale="1" pageWidth="1100" pageHeight="850" math="0" shadow="0">
      <root>
        <mxCell id="0" />
        <mxCell id="1" parent="0" />
        <mxCell id="APyEE4TWZeTX8XOIR97h-3" style="edgeStyle=orthogonalEdgeStyle;rounded=0;orthogonalLoop=1;jettySize=auto;html=1;entryX=0;entryY=0.5;entryDx=0;entryDy=0;" edge="1" parent="1" source="APyEE4TWZeTX8XOIR97h-1" target="APyEE4TWZeTX8XOIR97h-2">
          <mxGeometry relative="1" as="geometry" />
        </mxCell>
        <mxCell id="APyEE4TWZeTX8XOIR97h-1" value="" style="ellipse;whiteSpace=wrap;html=1;aspect=fixed;" vertex="1" parent="1">
          <mxGeometry x="60" y="110" width="34" height="34" as="geometry" />
        </mxCell>
        <mxCell id="APyEE4TWZeTX8XOIR97h-5" value="" style="edgeStyle=orthogonalEdgeStyle;rounded=0;orthogonalLoop=1;jettySize=auto;html=1;entryX=0;entryY=0.5;entryDx=0;entryDy=0;" edge="1" parent="1" source="APyEE4TWZeTX8XOIR97h-2" target="APyEE4TWZeTX8XOIR97h-6">
          <mxGeometry relative="1" as="geometry">
            <mxPoint x="290" y="140" as="targetPoint" />
          </mxGeometry>
        </mxCell>
        <mxCell id="APyEE4TWZeTX8XOIR97h-2" value="Choose &quot;Smartwatch&quot; feature" style="rounded=1;whiteSpace=wrap;html=1;" vertex="1" parent="1">
          <mxGeometry x="180" y="105.5" width="90" height="43" as="geometry" />
        </mxCell>
        <mxCell id="APyEE4TWZeTX8XOIR97h-10" style="edgeStyle=orthogonalEdgeStyle;rounded=0;orthogonalLoop=1;jettySize=auto;html=1;entryX=0.5;entryY=1;entryDx=0;entryDy=0;" edge="1" parent="1" source="APyEE4TWZeTX8XOIR97h-6" target="APyEE4TWZeTX8XOIR97h-9">
          <mxGeometry relative="1" as="geometry" />
        </mxCell>
        <mxCell id="APyEE4TWZeTX8XOIR97h-12" style="edgeStyle=orthogonalEdgeStyle;rounded=0;orthogonalLoop=1;jettySize=auto;html=1;entryX=0;entryY=0.5;entryDx=0;entryDy=0;" edge="1" parent="1" source="APyEE4TWZeTX8XOIR97h-6" target="APyEE4TWZeTX8XOIR97h-11">
          <mxGeometry relative="1" as="geometry" />
        </mxCell>
        <mxCell id="APyEE4TWZeTX8XOIR97h-6" value="Login ?" style="rhombus;whiteSpace=wrap;html=1;" vertex="1" parent="1">
          <mxGeometry x="340" y="76.5" width="101" height="101" as="geometry" />
        </mxCell>
        <mxCell id="APyEE4TWZeTX8XOIR97h-9" value="Login&amp;nbsp;" style="rounded=1;whiteSpace=wrap;html=1;" vertex="1" parent="1">
          <mxGeometry x="345.5" width="90" height="43" as="geometry" />
        </mxCell>
        <mxCell id="APyEE4TWZeTX8XOIR97h-14" value="" style="edgeStyle=orthogonalEdgeStyle;rounded=0;orthogonalLoop=1;jettySize=auto;html=1;" edge="1" parent="1" source="APyEE4TWZeTX8XOIR97h-11" target="APyEE4TWZeTX8XOIR97h-13">
          <mxGeometry relative="1" as="geometry" />
        </mxCell>
        <mxCell id="APyEE4TWZeTX8XOIR97h-11" value="Start pairing" style="rounded=1;whiteSpace=wrap;html=1;" vertex="1" parent="1">
          <mxGeometry x="490" y="97" width="120" height="60" as="geometry" />
        </mxCell>
        <mxCell id="APyEE4TWZeTX8XOIR97h-16" value="" style="edgeStyle=orthogonalEdgeStyle;rounded=0;orthogonalLoop=1;jettySize=auto;html=1;" edge="1" parent="1" source="APyEE4TWZeTX8XOIR97h-13" target="APyEE4TWZeTX8XOIR97h-15">
          <mxGeometry relative="1" as="geometry" />
        </mxCell>
        <mxCell id="APyEE4TWZeTX8XOIR97h-22" value="YES" style="edgeStyle=orthogonalEdgeStyle;rounded=0;orthogonalLoop=1;jettySize=auto;html=1;" edge="1" parent="1" source="APyEE4TWZeTX8XOIR97h-13" target="APyEE4TWZeTX8XOIR97h-21">
          <mxGeometry relative="1" as="geometry" />
        </mxCell>
        <mxCell id="APyEE4TWZeTX8XOIR97h-13" value="Bluetooth ON?" style="rhombus;whiteSpace=wrap;html=1;rounded=1;" vertex="1" parent="1">
          <mxGeometry x="710" y="87" width="80" height="80" as="geometry" />
        </mxCell>
        <mxCell id="APyEE4TWZeTX8XOIR97h-18" value="" style="edgeStyle=orthogonalEdgeStyle;rounded=0;orthogonalLoop=1;jettySize=auto;html=1;" edge="1" parent="1" source="APyEE4TWZeTX8XOIR97h-15" target="APyEE4TWZeTX8XOIR97h-17">
          <mxGeometry relative="1" as="geometry" />
        </mxCell>
        <mxCell id="APyEE4TWZeTX8XOIR97h-15" value="Show message to turn on Bluetooth" style="whiteSpace=wrap;html=1;rounded=1;" vertex="1" parent="1">
          <mxGeometry x="850" y="97" width="120" height="60" as="geometry" />
        </mxCell>
        <mxCell id="APyEE4TWZeTX8XOIR97h-20" value="YES" style="edgeStyle=orthogonalEdgeStyle;rounded=0;orthogonalLoop=1;jettySize=auto;html=1;entryX=0.5;entryY=0;entryDx=0;entryDy=0;" edge="1" parent="1" source="APyEE4TWZeTX8XOIR97h-17" target="APyEE4TWZeTX8XOIR97h-13">
          <mxGeometry relative="1" as="geometry">
            <mxPoint x="1120" y="-110" as="targetPoint" />
            <Array as="points">
              <mxPoint x="1105" y="67" />
              <mxPoint x="750" y="67" />
            </Array>
          </mxGeometry>
        </mxCell>
        <mxCell id="APyEE4TWZeTX8XOIR97h-17" value="User want to turn &lt;br&gt;on Bluetooth" style="rhombus;whiteSpace=wrap;html=1;rounded=1;" vertex="1" parent="1">
          <mxGeometry x="1040" y="80.5" width="130" height="93" as="geometry" />
        </mxCell>
        <mxCell id="APyEE4TWZeTX8XOIR97h-24" value="YES" style="edgeStyle=orthogonalEdgeStyle;rounded=0;orthogonalLoop=1;jettySize=auto;html=1;" edge="1" parent="1" source="APyEE4TWZeTX8XOIR97h-21" target="APyEE4TWZeTX8XOIR97h-23">
          <mxGeometry relative="1" as="geometry" />
        </mxCell>
        <mxCell id="APyEE4TWZeTX8XOIR97h-28" value="NO" style="edgeStyle=orthogonalEdgeStyle;rounded=0;orthogonalLoop=1;jettySize=auto;html=1;" edge="1" parent="1" source="APyEE4TWZeTX8XOIR97h-21" target="APyEE4TWZeTX8XOIR97h-27">
          <mxGeometry relative="1" as="geometry" />
        </mxCell>
        <mxCell id="APyEE4TWZeTX8XOIR97h-21" value="Was there any device connected before?" style="rhombus;whiteSpace=wrap;html=1;rounded=1;" vertex="1" parent="1">
          <mxGeometry x="685" y="220" width="130" height="113" as="geometry" />
        </mxCell>
        <mxCell id="APyEE4TWZeTX8XOIR97h-26" value="" style="edgeStyle=orthogonalEdgeStyle;rounded=0;orthogonalLoop=1;jettySize=auto;html=1;" edge="1" parent="1" source="APyEE4TWZeTX8XOIR97h-23" target="APyEE4TWZeTX8XOIR97h-25">
          <mxGeometry relative="1" as="geometry" />
        </mxCell>
        <mxCell id="APyEE4TWZeTX8XOIR97h-23" value="Connect automatically to recent device" style="whiteSpace=wrap;html=1;rounded=1;" vertex="1" parent="1">
          <mxGeometry x="690" y="390" width="120" height="60" as="geometry" />
        </mxCell>
        <mxCell id="APyEE4TWZeTX8XOIR97h-32" style="edgeStyle=orthogonalEdgeStyle;rounded=0;orthogonalLoop=1;jettySize=auto;html=1;entryX=0;entryY=0.5;entryDx=0;entryDy=0;" edge="1" parent="1" source="APyEE4TWZeTX8XOIR97h-25" target="APyEE4TWZeTX8XOIR97h-27">
          <mxGeometry relative="1" as="geometry">
            <Array as="points">
              <mxPoint x="750" y="650" />
              <mxPoint x="460" y="650" />
              <mxPoint x="460" y="276" />
            </Array>
          </mxGeometry>
        </mxCell>
        <mxCell id="APyEE4TWZeTX8XOIR97h-33" value="NO" style="edgeLabel;html=1;align=center;verticalAlign=middle;resizable=0;points=[];" vertex="1" connectable="0" parent="APyEE4TWZeTX8XOIR97h-32">
          <mxGeometry x="0.2072" y="1" relative="1" as="geometry">
            <mxPoint as="offset" />
          </mxGeometry>
        </mxCell>
        <mxCell id="APyEE4TWZeTX8XOIR97h-34" style="edgeStyle=orthogonalEdgeStyle;rounded=0;orthogonalLoop=1;jettySize=auto;html=1;entryX=0;entryY=0.5;entryDx=0;entryDy=0;" edge="1" parent="1" source="APyEE4TWZeTX8XOIR97h-25" target="APyEE4TWZeTX8XOIR97h-37">
          <mxGeometry relative="1" as="geometry">
            <mxPoint x="910.0000000000005" y="552.5000000000002" as="targetPoint" />
          </mxGeometry>
        </mxCell>
        <mxCell id="APyEE4TWZeTX8XOIR97h-36" value="YES" style="edgeLabel;html=1;align=center;verticalAlign=middle;resizable=0;points=[];" vertex="1" connectable="0" parent="APyEE4TWZeTX8XOIR97h-34">
          <mxGeometry x="-0.2451" y="1" relative="1" as="geometry">
            <mxPoint as="offset" />
          </mxGeometry>
        </mxCell>
        <mxCell id="APyEE4TWZeTX8XOIR97h-25" value="Connect succesful" style="rhombus;whiteSpace=wrap;html=1;rounded=1;" vertex="1" parent="1">
          <mxGeometry x="700" y="510" width="100" height="85" as="geometry" />
        </mxCell>
        <mxCell id="APyEE4TWZeTX8XOIR97h-30" value="" style="edgeStyle=orthogonalEdgeStyle;rounded=0;orthogonalLoop=1;jettySize=auto;html=1;" edge="1" parent="1" source="APyEE4TWZeTX8XOIR97h-27" target="APyEE4TWZeTX8XOIR97h-29">
          <mxGeometry relative="1" as="geometry" />
        </mxCell>
        <mxCell id="APyEE4TWZeTX8XOIR97h-27" value="Show list of available devices" style="whiteSpace=wrap;html=1;rounded=1;" vertex="1" parent="1">
          <mxGeometry x="480" y="246.5" width="120" height="60" as="geometry" />
        </mxCell>
        <mxCell id="APyEE4TWZeTX8XOIR97h-31" style="edgeStyle=orthogonalEdgeStyle;rounded=0;orthogonalLoop=1;jettySize=auto;html=1;entryX=0.1;entryY=0.5;entryDx=0;entryDy=0;entryPerimeter=0;" edge="1" parent="1" source="APyEE4TWZeTX8XOIR97h-29" target="APyEE4TWZeTX8XOIR97h-25">
          <mxGeometry relative="1" as="geometry">
            <Array as="points">
              <mxPoint x="540" y="552" />
            </Array>
          </mxGeometry>
        </mxCell>
        <mxCell id="APyEE4TWZeTX8XOIR97h-29" value="Choose device you want to connnect" style="whiteSpace=wrap;html=1;rounded=1;" vertex="1" parent="1">
          <mxGeometry x="480" y="386.5" width="120" height="60" as="geometry" />
        </mxCell>
        <mxCell id="APyEE4TWZeTX8XOIR97h-40" value="" style="edgeStyle=orthogonalEdgeStyle;rounded=0;orthogonalLoop=1;jettySize=auto;html=1;" edge="1" parent="1" source="APyEE4TWZeTX8XOIR97h-37" target="APyEE4TWZeTX8XOIR97h-39">
          <mxGeometry relative="1" as="geometry" />
        </mxCell>
        <mxCell id="APyEE4TWZeTX8XOIR97h-37" value="Show screen of smartwatch feature" style="rounded=1;whiteSpace=wrap;html=1;" vertex="1" parent="1">
          <mxGeometry x="890" y="522.5" width="120" height="60" as="geometry" />
        </mxCell>
        <mxCell id="APyEE4TWZeTX8XOIR97h-44" value="" style="edgeStyle=orthogonalEdgeStyle;rounded=0;orthogonalLoop=1;jettySize=auto;html=1;" edge="1" parent="1" source="APyEE4TWZeTX8XOIR97h-39" target="APyEE4TWZeTX8XOIR97h-43">
          <mxGeometry relative="1" as="geometry" />
        </mxCell>
        <mxCell id="APyEE4TWZeTX8XOIR97h-59" style="edgeStyle=orthogonalEdgeStyle;rounded=0;orthogonalLoop=1;jettySize=auto;html=1;entryX=0.5;entryY=0;entryDx=0;entryDy=0;" edge="1" parent="1" source="APyEE4TWZeTX8XOIR97h-39" target="APyEE4TWZeTX8XOIR97h-53">
          <mxGeometry relative="1" as="geometry" />
        </mxCell>
        <mxCell id="APyEE4TWZeTX8XOIR97h-39" value="First time use this feature ?" style="rhombus;whiteSpace=wrap;html=1;rounded=1;" vertex="1" parent="1">
          <mxGeometry x="1080" y="496.88" width="113.84" height="111.25" as="geometry" />
        </mxCell>
        <mxCell id="APyEE4TWZeTX8XOIR97h-46" value="" style="edgeStyle=orthogonalEdgeStyle;rounded=0;orthogonalLoop=1;jettySize=auto;html=1;entryX=0.5;entryY=0;entryDx=0;entryDy=0;" edge="1" parent="1" source="APyEE4TWZeTX8XOIR97h-43" target="APyEE4TWZeTX8XOIR97h-55">
          <mxGeometry relative="1" as="geometry">
            <mxPoint x="1200" y="810" as="targetPoint" />
          </mxGeometry>
        </mxCell>
        <mxCell id="APyEE4TWZeTX8XOIR97h-43" value="Show screen to fill&amp;nbsp; illness history" style="whiteSpace=wrap;html=1;rounded=1;" vertex="1" parent="1">
          <mxGeometry x="1076.92" y="660" width="120" height="60" as="geometry" />
        </mxCell>
        <mxCell id="APyEE4TWZeTX8XOIR97h-47" value="NO" style="edgeStyle=orthogonalEdgeStyle;rounded=0;orthogonalLoop=1;jettySize=auto;html=1;entryX=0;entryY=0.5;entryDx=0;entryDy=0;exitX=0;exitY=0.5;exitDx=0;exitDy=0;" edge="1" parent="1" source="APyEE4TWZeTX8XOIR97h-45" target="APyEE4TWZeTX8XOIR97h-43">
          <mxGeometry relative="1" as="geometry">
            <Array as="points">
              <mxPoint x="1057" y="980" />
              <mxPoint x="1057" y="690" />
            </Array>
          </mxGeometry>
        </mxCell>
        <mxCell id="APyEE4TWZeTX8XOIR97h-57" style="edgeStyle=orthogonalEdgeStyle;rounded=0;orthogonalLoop=1;jettySize=auto;html=1;entryX=0;entryY=0.5;entryDx=0;entryDy=0;" edge="1" parent="1" source="APyEE4TWZeTX8XOIR97h-45" target="APyEE4TWZeTX8XOIR97h-53">
          <mxGeometry relative="1" as="geometry" />
        </mxCell>
        <mxCell id="APyEE4TWZeTX8XOIR97h-58" value="YES" style="edgeLabel;html=1;align=center;verticalAlign=middle;resizable=0;points=[];" vertex="1" connectable="0" parent="APyEE4TWZeTX8XOIR97h-57">
          <mxGeometry x="-0.3563" y="1" relative="1" as="geometry">
            <mxPoint as="offset" />
          </mxGeometry>
        </mxCell>
        <mxCell id="APyEE4TWZeTX8XOIR97h-45" value="Save illness &lt;br&gt;history ?" style="rhombus;whiteSpace=wrap;html=1;rounded=1;" vertex="1" parent="1">
          <mxGeometry x="1081.92" y="925" width="110" height="110" as="geometry" />
        </mxCell>
        <mxCell id="APyEE4TWZeTX8XOIR97h-61" value="" style="edgeStyle=orthogonalEdgeStyle;rounded=0;orthogonalLoop=1;jettySize=auto;html=1;" edge="1" parent="1" source="APyEE4TWZeTX8XOIR97h-53" target="APyEE4TWZeTX8XOIR97h-60">
          <mxGeometry relative="1" as="geometry" />
        </mxCell>
        <mxCell id="APyEE4TWZeTX8XOIR97h-53" value="Show current heath status&amp;nbsp;" style="whiteSpace=wrap;html=1;rounded=1;" vertex="1" parent="1">
          <mxGeometry x="1260" y="950" width="120" height="60" as="geometry" />
        </mxCell>
        <mxCell id="APyEE4TWZeTX8XOIR97h-56" style="edgeStyle=orthogonalEdgeStyle;rounded=0;orthogonalLoop=1;jettySize=auto;html=1;entryX=0.5;entryY=0;entryDx=0;entryDy=0;" edge="1" parent="1" source="APyEE4TWZeTX8XOIR97h-55" target="APyEE4TWZeTX8XOIR97h-45">
          <mxGeometry relative="1" as="geometry" />
        </mxCell>
        <mxCell id="APyEE4TWZeTX8XOIR97h-55" value="Fill illness history&amp;nbsp;" style="whiteSpace=wrap;html=1;rounded=1;" vertex="1" parent="1">
          <mxGeometry x="1076.92" y="820" width="120" height="60" as="geometry" />
        </mxCell>
        <mxCell id="APyEE4TWZeTX8XOIR97h-60" value="" style="whiteSpace=wrap;html=1;rounded=1;" vertex="1" parent="1">
          <mxGeometry x="1260" y="1050" width="120" height="60" as="geometry" />
        </mxCell>
      </root>
    </mxGraphModel>
  </diagram>
</mxfile>
